# xmcd
#
# Track frame offsets:
#	150
#	13655
#	25925
#	42132
#	52347
#	65314
#	82462
#	95667
#	112430
#
# Disc length: 1717 seconds
#
# Revision: 0
# Processed by: cddbd v1.5.2PL0 Copyright (c) Steve Scherf et al.
# Submitted via: audiograbber 1.83.01
#
DISCID=8306b309
DTITLE=Allison Shields - A Little Too Far
DYEAR=1900
DGENRE=Country 
TTITLE0=We Can't Hurt Anymore
TTITLE1=A Little Too Far
TTITLE2=Up To You
TTITLE3=Tossin' and Turnin'
TTITLE4=His Words
TTITLE5=You'll Never Know
TTITLE6=Lonely Girl
TTITLE7=I'll Carry You
TTITLE8=You'll Never Find True Love
EXTD=
EXTT0=
EXTT1=
EXTT2=
EXTT3=
EXTT4=
EXTT5=
EXTT6=
EXTT7=
EXTT8=
PLAYORDER=
